<?xml version="1.0" standalone="no"?>
<!DOCTYPE svg PUBLIC "-//W3C//DTD SVG 20010904//EN"
 "http://www.w3.org/TR/2001/REC-SVG-20010904/DTD/svg10.dtd">
<svg version="1.0" xmlns="http://www.w3.org/2000/svg"
 width="1300.000000pt" height="1300.000000pt" viewBox="0 0 1300.000000 1300.000000"
 preserveAspectRatio="xMidYMid meet">
<metadata>
Created by potrace 1.16, written by Peter Selinger 2001-2019
</metadata>
<g transform="translate(0.000000,1300.000000) scale(0.100000,-0.100000)"
fill="#000000" stroke="none">
<path d="M0 12467 l0 -532 100 -100 100 -100 133 133 c73 72 135 132 139 132
4 0 41 -34 83 -76 l75 -76 -137 -134 -137 -134 137 -138 137 -137 -80 -80 -80
-80 -135 135 -135 134 -98 -94 -99 -95 -2 -730 -1 -730 90 -90 90 -90 135 135
135 135 78 -78 79 -78 -134 -131 c-73 -73 -133 -135 -133 -140 0 -4 60 -68
133 -142 l134 -135 -79 -78 -78 -78 -134 134 -135 134 -38 -34 c-21 -19 -62
-59 -90 -89 l-53 -54 0 -775 0 -775 87 -88 88 -87 137 137 138 137 80 -80 80
-80 -137 -137 -138 -138 136 -137 135 -138 -35 -35 c-20 -19 -55 -53 -79 -74
l-44 -39 -134 134 -134 134 -90 -90 -90 -90 0 -715 0 -715 100 -100 100 -100
135 135 135 135 80 -80 81 -80 -137 -134 -137 -133 137 -137 137 -138 -76 -74
c-42 -41 -78 -76 -81 -79 -2 -2 -65 56 -139 130 l-135 135 -100 -100 -100
-100 0 -728 0 -728 85 -85 c47 -46 89 -84 93 -84 4 0 66 60 139 132 l133 133
80 -80 79 -79 -106 -105 c-59 -57 -120 -120 -136 -138 l-30 -34 134 -135 134
-134 -78 -77 -77 -78 -135 135 -135 135 -90 -90 -90 -90 0 -775 0 -775 87 -87
88 -88 137 137 138 138 80 -80 80 -80 -137 -137 -138 -138 134 -134 c114 -115
132 -136 123 -152 -9 -17 -60 -67 -120 -118 l-23 -20 -134 134 -135 135 -90
-90 -90 -90 0 -182 0 -183 447 0 447 0 58 57 58 57 58 -57 58 -57 159 0 159 0
58 57 58 57 58 -57 58 -57 725 0 725 0 22 25 c27 31 33 31 62 0 l23 -25 216 0
215 0 28 27 28 27 28 -27 28 -27 725 0 725 0 54 55 c30 30 57 55 61 55 4 0 32
-25 64 -55 l56 -55 157 0 156 0 58 57 58 57 58 -57 58 -57 694 0 694 0 58 57
58 57 58 -57 58 -57 159 0 159 0 58 57 58 57 58 -57 58 -57 724 0 724 0 28 27
28 27 28 -27 28 -27 215 0 216 0 23 25 c30 31 43 31 68 0 l20 -25 724 0 724 0
54 55 c30 30 59 55 64 55 5 0 33 -25 62 -55 l53 -55 158 0 157 0 58 57 58 57
58 -57 58 -57 247 0 247 0 0 172 0 172 -38 -37 -38 -37 -77 78 -77 77 115 115
c113 112 115 116 115 160 0 44 -2 47 -115 160 l-115 115 80 80 80 79 29 -32
c17 -17 32 -32 35 -32 3 0 6 336 6 747 l0 747 -35 -34 -35 -34 -78 77 -77 77
113 113 c110 110 112 113 112 158 0 45 -2 47 -115 160 l-115 113 80 80 80 80
35 -34 35 -34 0 714 0 714 -35 -34 -35 -34 -80 80 -80 80 115 113 c114 113
115 114 115 161 0 47 0 48 -114 158 l-114 110 79 78 79 78 35 -34 35 -34 0
704 0 704 -34 -33 c-40 -39 -39 -40 -126 52 l-64 68 112 112 c109 110 112 113
112 157 0 44 -3 47 -115 160 l-115 115 80 80 80 79 35 -34 35 -34 0 749 0 749
-35 -34 -35 -34 -75 74 c-41 41 -74 78 -73 82 2 4 51 56 111 116 106 108 107
109 107 157 0 48 0 48 -113 161 l-114 112 78 78 79 78 35 -34 35 -34 0 714 0
714 -35 -34 -35 -34 -80 79 -79 79 114 115 c111 111 115 117 115 158 0 41 -4
47 -114 157 l-113 114 78 78 79 78 35 -34 35 -34 0 532 0 532 -247 0 c-208 -1
-245 -3 -230 -14 9 -7 17 -17 17 -22 0 -5 -59 -68 -132 -141 l-132 -133 114
-117 c63 -64 125 -126 138 -137 l23 -21 -81 -80 -80 -80 -138 138 -137 137
-135 -135 -135 -135 -77 77 -78 78 135 135 135 135 -137 137 c-135 136 -137
137 -118 158 l18 20 -719 0 -718 0 48 -49 49 -49 -139 -136 -138 -136 137
-138 137 -137 -77 -77 -78 -78 -136 135 -136 135 -138 -136 -138 -135 -79 78
-78 78 137 138 138 137 -138 137 -137 137 47 48 47 48 -718 0 -719 0 18 -20
c19 -21 17 -22 -118 -158 l-137 -137 137 -138 138 -137 -78 -77 -77 -78 -138
138 -137 137 -137 -137 -138 -138 -75 75 c-41 41 -75 77 -75 80 0 3 54 60 120
126 66 65 125 127 131 138 10 16 -6 36 -122 152 -131 132 -133 133 -114 154
l18 20 -693 0 -693 0 18 -20 c19 -21 17 -22 -113 -153 -73 -73 -132 -137 -132
-143 0 -6 60 -70 134 -142 l133 -130 -78 -78 -79 -79 -138 138 -137 137 -137
-137 -136 -136 -77 78 -77 78 136 136 136 136 -137 137 c-135 136 -137 137
-118 158 l18 20 -719 0 -718 0 49 -50 49 -50 -139 -136 -138 -136 136 -136
137 -137 -78 -78 -78 -77 -135 135 -134 136 -137 -138 -138 -138 -80 80 -80
80 137 138 138 137 -138 137 -137 137 47 48 47 48 -718 0 -719 0 18 -20 c19
-21 17 -22 -118 -158 l-137 -137 137 -137 136 -137 -76 -78 -77 -78 -137 137
-138 138 -137 -137 -138 -138 -75 75 c-41 41 -75 79 -75 84 0 5 53 61 118 125
64 64 124 124 131 134 13 17 3 30 -119 152 -132 133 -134 134 -115 155 l18 20
-446 0 -447 0 0 -533z m2217 -584 c65 -65 126 -124 136 -132 17 -13 30 -3 153
120 l134 134 77 -78 78 -77 -138 -137 -137 -138 137 -137 138 -138 -78 -77
-77 -78 -138 138 -137 137 -138 -137 -137 -138 -77 78 -78 77 138 138 137 137
-137 137 -138 138 75 75 c41 41 78 75 82 75 4 0 60 -53 125 -117z m2178 -13
c71 -71 133 -130 138 -130 4 0 66 59 137 130 71 72 133 130 137 130 5 0 42
-34 83 -75 l75 -75 -138 -138 -137 -137 138 -138 137 -138 -78 -76 -78 -77
-132 132 c-73 73 -137 132 -142 132 -5 0 -69 -60 -142 -132 l-133 -133 -77 78
-78 77 133 133 c72 73 132 137 132 142 0 5 -60 69 -132 142 l-133 133 75 75
c41 41 77 75 80 75 3 0 64 -58 135 -130z m2172 -2 l133 -133 133 133 c73 72
136 132 141 132 5 0 42 -34 84 -76 l76 -76 -138 -135 -138 -136 136 -136 136
-136 -65 -66 c-35 -37 -71 -72 -79 -78 -12 -10 -36 9 -133 106 -66 65 -127
124 -137 132 -16 13 -30 2 -152 -120 l-134 -134 -80 80 -80 80 137 137 136
137 -134 135 -134 135 70 74 c38 41 74 75 80 76 5 0 69 -59 142 -131z m2160 2
c72 -71 134 -130 139 -130 5 0 68 60 141 132 l133 133 77 -78 78 -77 -133
-133 c-72 -73 -132 -137 -132 -142 0 -5 60 -69 132 -142 l133 -133 -78 -77
-77 -78 -133 133 c-73 72 -136 132 -141 132 -5 0 -69 -60 -143 -132 l-134
-133 -76 78 -77 78 137 137 137 137 -137 137 -138 138 75 75 c41 41 77 75 81
75 3 0 64 -58 136 -130z m2168 0 c71 -71 134 -130 140 -130 5 0 69 60 142 132
l133 133 77 -78 78 -77 -133 -133 c-72 -73 -132 -137 -132 -142 0 -5 60 -69
132 -142 l133 -133 -78 -77 -77 -78 -138 138 -137 137 -138 -137 -137 -138
-77 78 -78 77 133 133 c72 73 132 137 132 142 0 5 -60 69 -132 142 l-133 133
75 75 c41 41 77 75 80 75 3 0 64 -58 135 -130z m-9745 -1115 l135 -135 137
137 138 138 77 -78 78 -77 -138 -137 -137 -138 137 -137 138 -138 -78 -77 -77
-78 -138 138 -137 137 -138 -137 -137 -138 -77 78 -78 77 133 133 c72 73 132
137 132 142 0 5 -60 69 -132 142 l-133 133 75 75 c41 41 77 75 80 75 3 0 66
-61 140 -135z m4330 0 l135 -135 137 137 138 138 77 -78 78 -77 -133 -133
c-72 -73 -132 -137 -132 -142 0 -5 60 -69 132 -142 l133 -133 -78 -77 -77 -78
-133 133 c-73 72 -137 132 -142 132 -5 0 -69 -60 -142 -132 l-133 -133 -77 78
-78 77 138 138 137 137 -137 137 -138 138 75 75 c41 41 77 75 80 75 3 0 66
-61 140 -135z m2170 0 l135 -135 137 137 138 138 77 -78 78 -77 -138 -137
-137 -138 137 -137 138 -138 -75 -75 c-41 -41 -77 -75 -81 -75 -3 0 -64 59
-134 130 -71 72 -134 130 -139 130 -6 0 -70 -60 -143 -132 l-133 -133 -77 78
-78 77 133 133 c72 73 132 137 132 142 0 5 -60 69 -132 142 l-133 133 75 75
c41 41 77 75 80 75 3 0 66 -61 140 -135z m4303 33 c57 -57 119 -116 136 -133
l32 -29 134 134 135 135 80 -80 79 -79 -134 -131 c-74 -73 -135 -136 -135
-141 0 -5 59 -67 130 -139 72 -71 130 -132 130 -135 0 -3 -34 -39 -75 -80
l-75 -75 -133 133 c-73 72 -135 132 -138 132 -4 0 -65 -58 -137 -130 -72 -71
-135 -130 -139 -130 -5 0 -42 34 -83 75 l-75 75 138 138 137 137 -137 137
-138 138 75 75 c41 41 77 75 81 75 4 0 54 -46 112 -102z m-8636 -90 l133 -133
135 135 135 135 77 -75 c43 -41 80 -76 82 -78 3 -1 -57 -64 -132 -140 l-137
-136 135 -136 136 -136 -76 -74 c-42 -41 -78 -77 -81 -80 -2 -2 -65 56 -139
130 l-135 135 -133 -133 c-73 -72 -135 -132 -139 -132 -4 0 -41 34 -83 76
l-77 75 137 138 137 138 -135 135 -135 136 77 76 c42 42 78 76 81 76 3 0 64
-60 137 -132z m6500 0 l133 -133 133 133 c73 72 135 132 139 132 4 0 42 -35
83 -77 l76 -77 -135 -135 -136 -136 137 -137 137 -137 -74 -75 c-41 -42 -79
-76 -85 -76 -5 0 -69 60 -142 132 l-133 133 -135 -135 -135 -135 -79 79 -79
79 116 116 c65 64 125 126 135 137 17 20 14 24 -118 154 l-135 134 77 78 c43
43 80 78 83 78 2 0 64 -60 137 -132z m-7577 -983 l135 -134 137 137 138 137
75 -75 c41 -41 75 -77 75 -81 0 -3 -58 -64 -130 -135 -71 -71 -130 -133 -130
-139 0 -5 60 -69 132 -142 l133 -133 -78 -77 -77 -78 -138 138 -138 138 -133
-136 c-73 -74 -136 -135 -140 -135 -3 0 -40 34 -81 75 l-75 75 138 138 137
137 -137 137 -138 138 75 75 c41 41 77 75 80 75 3 0 66 -61 140 -135z m2200 0
l135 -135 137 137 138 138 77 -78 78 -77 -133 -133 c-72 -73 -132 -137 -132
-142 0 -5 60 -69 132 -142 l133 -133 -78 -77 -77 -78 -133 133 c-73 72 -136
132 -141 132 -5 0 -67 -57 -138 -127 -71 -71 -132 -129 -136 -131 -4 -1 -41
32 -82 73 l-75 75 138 138 137 137 -137 137 -138 138 75 75 c41 41 77 75 80
75 3 0 66 -61 140 -135z m2027 103 c18 -18 33 -37 33 -43 0 -6 41 -51 90 -100
l90 -90 135 135 135 135 80 -80 79 -79 -112 -111 c-62 -62 -122 -123 -135
-137 l-22 -24 135 -135 134 -135 -79 -79 -80 -80 -135 135 -135 135 -90 -90
c-49 -49 -90 -94 -90 -100 0 -6 -16 -26 -35 -45 l-35 -34 -80 79 -79 79 110
110 c126 127 141 149 122 186 -7 14 -62 74 -123 135 l-110 110 77 77 c43 43
80 78 82 78 3 0 20 -14 38 -32z m2247 -70 c55 -56 116 -115 134 -132 l33 -29
135 134 134 134 78 -78 78 -78 -133 -131 c-73 -73 -133 -136 -133 -141 0 -6
59 -69 130 -140 72 -72 130 -134 130 -137 0 -3 -34 -39 -75 -80 l-75 -75 -138
137 -137 137 -116 -117 c-64 -64 -126 -125 -138 -136 -20 -19 -21 -18 -97 59
l-77 77 137 137 136 136 -137 137 -136 136 77 76 c42 42 80 76 83 76 3 0 51
-46 107 -102z m2193 10 c50 -51 110 -111 132 -133 l41 -39 135 134 135 135 79
-79 78 -78 -133 -133 c-74 -74 -134 -137 -134 -140 0 -3 60 -66 134 -139 l134
-133 -79 -79 -79 -79 -133 133 c-73 72 -135 132 -139 132 -3 0 -64 -58 -136
-130 -71 -71 -134 -130 -139 -130 -4 0 -42 34 -83 75 l-75 75 138 138 137 137
-137 137 -138 138 75 75 c41 41 79 75 85 75 6 0 52 -42 102 -92z m-9782 -1172
l132 -134 137 136 137 136 79 -79 80 -80 -137 -137 -137 -137 132 -132 c73
-73 132 -135 132 -138 0 -7 -93 -104 -129 -135 l-22 -20 -134 134 -135 135
-133 -133 c-73 -72 -137 -132 -142 -132 -6 0 -43 33 -83 73 l-72 72 137 139
136 138 -137 137 -136 136 77 78 c43 42 80 77 82 77 2 0 63 -60 136 -134z
m2200 0 l133 -134 136 137 136 136 80 -80 80 -80 -137 -137 -138 -138 138
-137 137 -138 -53 -53 c-28 -29 -65 -63 -80 -74 l-29 -21 -134 134 -134 134
-133 -133 c-73 -72 -137 -132 -142 -132 -6 0 -44 34 -85 75 l-75 75 138 138
137 137 -136 136 -135 135 77 77 c43 42 79 77 82 77 2 0 64 -60 137 -134z
m2253 -59 l76 -78 138 138 138 138 80 -80 80 -80 -137 -137 -138 -138 135
-135 135 -135 -78 -77 -77 -78 -135 135 -135 135 -133 -133 c-73 -72 -137
-132 -142 -132 -6 0 -44 34 -85 75 l-75 75 138 138 137 137 -135 135 -135 135
77 77 77 78 59 -58 c32 -31 93 -92 135 -135z m2050 60 l133 -133 134 136 134
135 81 -80 80 -80 -135 -135 -136 -136 134 -137 134 -137 -70 -75 c-39 -41
-75 -75 -81 -75 -6 0 -70 60 -143 132 l-133 133 -133 -133 c-73 -72 -137 -132
-142 -132 -6 0 -43 34 -82 75 l-72 75 136 136 136 136 -137 137 -136 136 77
78 c43 42 80 77 83 77 3 0 65 -60 138 -133z m2194 3 c72 -71 133 -130 137
-130 3 0 65 60 138 132 l133 133 80 -80 80 -80 -137 -137 -138 -138 137 -137
137 -138 -57 -55 c-31 -30 -67 -64 -80 -74 l-24 -19 -134 134 -134 134 -133
-133 c-73 -72 -137 -132 -142 -132 -6 0 -43 33 -84 74 l-73 73 138 137 138
136 -137 138 -137 137 77 78 c43 42 79 77 81 77 2 0 62 -58 134 -130z m2204
-3 l133 -134 135 136 136 136 80 -80 80 -80 -136 -136 -137 -137 132 -132 c72
-72 131 -135 131 -139 0 -7 -90 -102 -128 -135 l-23 -20 -134 134 -135 135
-133 -133 c-73 -72 -137 -132 -143 -132 -6 0 -43 34 -83 75 l-72 75 136 137
136 137 -136 136 -136 136 78 77 c43 42 80 77 82 77 3 0 64 -60 137 -133z
m-9514 -1090 l138 138 80 -80 80 -80 -135 -132 c-74 -73 -135 -136 -135 -140
0 -4 60 -67 132 -140 l133 -133 -78 -77 -77 -78 -135 135 -135 135 -133 -133
c-73 -72 -137 -132 -142 -132 -6 0 -44 34 -85 75 l-75 76 138 136 138 137
-136 136 -135 135 77 78 78 77 135 -135 135 -135 137 137z m2200 0 l138 138
80 -80 80 -80 -130 -130 c-71 -71 -133 -134 -137 -138 -4 -4 53 -68 127 -142
l135 -135 -78 -77 -77 -78 -135 135 -135 135 -138 -138 -137 -137 -79 79 -78
79 136 138 136 138 -136 137 -136 137 77 77 77 78 136 -136 137 -137 137 137z
m1763 84 c17 -24 68 -84 115 -133 l84 -89 138 138 138 138 80 -80 80 -80 -137
-137 -138 -138 138 -138 137 -138 -42 -39 c-24 -22 -60 -56 -81 -75 l-37 -34
-135 134 -135 135 -90 -90 c-49 -49 -90 -94 -90 -100 0 -6 -17 -28 -38 -48
l-38 -37 -77 78 -77 77 110 110 c129 129 145 152 125 193 -8 15 -64 76 -125
137 l-110 110 77 77 c43 43 82 77 88 75 5 -2 24 -23 40 -46z m2537 -84 l138
138 80 -80 80 -80 -137 -137 -138 -138 135 -135 134 -134 -24 -28 c-66 -72
-118 -123 -126 -123 -5 0 -68 60 -141 132 l-133 133 -133 -133 c-73 -72 -137
-132 -142 -132 -6 0 -44 33 -84 74 l-74 74 138 138 137 137 -136 136 -136 136
77 78 77 78 136 -136 135 -135 137 137z m1928 -2 l135 -135 137 137 138 138
80 -80 80 -80 -137 -137 -138 -138 136 -137 135 -138 -48 -45 c-26 -25 -61
-58 -78 -75 l-30 -30 -135 135 -135 135 -138 -138 -137 -137 -80 80 -80 80
138 138 137 137 -135 136 -136 135 73 75 c40 42 75 77 78 77 3 1 66 -59 140
-133z m-9795 -1015 c71 -72 133 -129 137 -128 3 2 65 60 137 131 71 70 134
127 138 127 5 0 42 -34 83 -75 l75 -75 -138 -138 -137 -137 137 -137 138 -138
-78 -77 -77 -78 -138 138 -137 137 -137 -137 -138 -138 -75 75 c-41 41 -75 77
-75 80 0 4 59 65 130 137 72 72 130 134 130 139 0 5 -60 68 -132 141 l-133
133 75 75 c41 41 77 75 80 75 3 0 64 -59 135 -130z m4332 0 c73 -71 135 -130
140 -130 4 0 67 60 140 132 l133 133 77 -78 78 -77 -133 -133 c-72 -73 -132
-137 -132 -142 0 -5 60 -69 132 -142 l133 -133 -78 -77 -77 -78 -138 138 -137
137 -136 -136 -137 -137 -78 76 -79 76 137 138 138 138 -137 137 -138 138 75
75 c41 41 77 75 80 75 3 0 65 -58 137 -130z m2168 0 c71 -71 134 -130 140
-130 6 0 69 59 140 130 70 72 131 130 134 130 4 0 40 -34 81 -75 l75 -75 -138
-138 -137 -137 137 -137 138 -138 -78 -77 -77 -78 -138 138 -137 137 -138
-137 -137 -138 -77 78 -78 77 138 138 137 137 -137 137 -138 138 75 75 c41 41
77 75 80 75 3 0 64 -58 135 -130z m4342 -2 l133 -133 135 135 134 134 79 -76
78 -77 -133 -133 c-73 -73 -133 -137 -133 -141 0 -5 60 -69 133 -142 l134
-134 -79 -78 -78 -78 -138 138 -137 137 -137 -137 -137 -137 -76 78 -77 79
136 136 136 136 -137 137 -138 138 75 75 c41 41 79 75 85 75 5 0 69 -60 142
-132z m-8244 -212 l-138 -136 138 -138 137 -137 -80 -80 -80 -80 -136 136
-137 137 -135 -135 -135 -135 -78 78 -79 79 136 136 136 136 -139 137 -138
136 70 70 c39 38 76 72 84 75 10 4 61 -40 148 -127 l133 -133 137 137 136 136
78 -78 79 -79 -137 -135z m6074 152 l133 -133 133 133 c73 72 137 132 142 132
6 0 44 -34 84 -74 l74 -75 -137 -137 -138 -136 136 -137 136 -136 -77 -78 -77
-78 -132 132 c-72 72 -137 130 -143 128 -5 -2 -69 -62 -141 -133 l-131 -129
-80 79 -79 79 137 138 138 137 -138 138 -138 137 78 72 c43 40 80 73 83 73 2
0 64 -60 137 -132z m-7587 -1053 l135 -135 137 137 138 138 77 -78 78 -77
-133 -133 c-72 -73 -132 -137 -132 -142 0 -5 60 -69 132 -142 l133 -133 -78
-77 -77 -78 -138 138 -137 137 -138 -137 -137 -138 -77 78 -78 77 138 138 137
137 -137 137 -138 138 75 75 c41 41 77 75 80 75 3 0 66 -61 140 -135z m2165 5
c71 -71 134 -130 140 -130 5 0 69 60 142 132 l133 133 77 -78 78 -77 -138
-137 -137 -138 137 -137 138 -138 -75 -75 c-41 -41 -77 -75 -80 -75 -4 0 -64
59 -135 130 -71 72 -134 130 -140 130 -5 0 -69 -60 -142 -132 l-133 -133 -77
78 -78 77 133 133 c72 73 132 137 132 142 0 5 -60 69 -132 142 l-133 133 75
75 c41 41 77 75 80 75 3 0 64 -58 135 -130z m2172 -2 l133 -133 133 133 c73
72 136 132 140 132 4 0 42 -34 84 -76 l76 -75 -136 -137 -137 -137 137 -137
c117 -117 134 -138 121 -150 -8 -7 -45 -42 -81 -78 l-67 -65 -135 135 -135
135 -135 -135 -135 -134 -37 36 c-21 20 -58 55 -82 78 l-43 42 133 134 c74 74
136 137 139 140 2 3 -57 65 -132 138 l-137 134 77 76 c42 42 79 76 82 76 3 0
64 -60 137 -132z m2160 2 c71 -71 133 -130 139 -130 5 0 68 60 141 132 l133
133 77 -78 78 -77 -133 -133 c-72 -73 -132 -137 -132 -142 0 -5 60 -69 132
-142 l133 -133 -78 -77 -77 -78 -138 138 -137 137 -138 -137 -137 -138 -77 78
-78 77 138 138 137 137 -137 137 -138 138 75 75 c41 41 78 75 81 75 4 0 65
-58 136 -130z m2168 0 c71 -71 134 -130 140 -130 5 0 69 60 142 132 l133 133
77 -78 78 -77 -138 -137 -137 -138 137 -137 138 -138 -78 -77 -77 -78 -138
138 -137 137 -138 -137 -137 -138 -77 78 -78 77 138 138 137 137 -137 137
-138 138 75 75 c41 41 77 75 80 75 3 0 64 -58 135 -130z m-9745 -1115 l135
-135 137 137 138 138 77 -78 78 -77 -138 -137 -137 -138 137 -137 138 -138
-75 -75 c-41 -41 -79 -75 -85 -75 -5 0 -69 60 -142 132 l-133 133 -135 -135
-135 -135 -77 78 -78 77 135 135 134 134 -29 32 c-17 17 -68 70 -115 118 -47
47 -94 96 -104 109 l-20 23 74 74 c41 41 77 75 80 75 3 0 66 -61 140 -135z
m4330 0 l135 -135 137 137 138 138 79 -79 79 -79 -121 -121 c-67 -67 -128
-129 -136 -139 -13 -17 -3 -30 120 -153 l134 -134 -78 -77 -77 -78 -133 133
c-73 72 -135 132 -138 132 -3 0 -65 -58 -137 -130 -72 -71 -135 -130 -140
-130 -4 0 -41 34 -82 75 l-75 75 138 138 137 137 -137 137 -138 138 75 75 c41
41 77 75 80 75 3 0 66 -61 140 -135z m2170 0 l135 -135 137 137 138 138 77
-78 78 -77 -138 -137 -137 -138 137 -137 138 -138 -78 -77 -77 -78 -133 133
c-73 72 -137 132 -142 132 -5 0 -69 -60 -142 -132 l-133 -133 -77 78 -78 77
133 133 c72 73 132 137 132 142 0 5 -60 69 -132 142 l-133 133 75 75 c41 41
77 75 80 75 3 0 66 -61 140 -135z m4330 0 l135 -135 137 137 138 138 79 -79
80 -80 -132 -133 c-73 -74 -134 -136 -137 -139 -2 -2 56 -65 130 -139 l135
-135 -78 -77 -77 -78 -135 135 -135 134 -51 -49 c-28 -28 -87 -87 -132 -132
-45 -46 -86 -83 -92 -83 -6 0 -44 34 -85 75 l-75 75 138 138 137 137 -136 136
-136 136 74 76 c40 42 75 76 78 76 3 1 66 -60 140 -134z m-8667 -55 c71 -71
132 -130 135 -130 4 0 66 60 139 132 l133 133 80 -80 80 -80 -137 -137 -136
-137 136 -137 135 -137 -61 -64 c-97 -101 -80 -105 -233 48 l-134 134 -134
-134 c-154 -153 -129 -149 -232 -42 l-61 64 135 134 135 135 -137 137 -137
137 78 77 c43 42 80 77 82 77 3 0 63 -58 134 -130z m6504 -2 l133 -133 133
133 c73 72 135 132 138 132 3 0 40 -35 83 -77 l77 -77 -136 -136 -135 -135
137 -137 137 -137 -74 -76 c-41 -41 -79 -75 -85 -75 -5 0 -69 60 -142 132
l-133 133 -134 -134 c-112 -111 -137 -132 -149 -122 -8 6 -45 41 -81 77 l-66
65 118 117 c64 65 125 127 135 139 19 21 18 22 -117 155 l-135 134 77 77 c42
42 79 77 82 77 3 0 64 -60 137 -132z m-7576 -983 l134 -135 137 137 138 138
77 -78 78 -77 -133 -133 c-72 -73 -132 -137 -132 -142 0 -5 60 -69 132 -142
l133 -133 -78 -77 -77 -78 -134 134 c-95 94 -138 131 -147 125 -8 -4 -69 -62
-137 -128 -67 -67 -126 -122 -130 -124 -4 -1 -41 32 -82 73 l-75 75 138 138
137 137 -137 138 -138 137 75 74 c41 41 78 75 81 75 3 1 66 -60 140 -134z
m2199 0 l135 -135 137 137 138 138 79 -79 79 -79 -121 -121 c-67 -67 -128
-129 -136 -139 -13 -17 -3 -30 120 -153 l134 -134 -78 -77 -77 -78 -133 133
c-73 72 -135 132 -139 132 -3 0 -65 -58 -136 -130 -72 -71 -135 -130 -139
-130 -5 0 -42 34 -83 75 l-75 75 138 138 137 137 -137 137 -138 138 75 75 c41
41 77 75 80 75 3 0 66 -61 140 -135z m2027 103 c18 -18 33 -37 33 -43 0 -6 41
-51 90 -100 l90 -90 135 135 135 135 80 -80 80 -80 -137 -137 -136 -137 136
-134 136 -134 -80 -79 -79 -79 -135 135 -135 135 -90 -90 c-49 -49 -90 -94
-90 -100 0 -6 -16 -26 -35 -45 -40 -38 -32 -42 -131 57 l-63 62 114 112 c63
62 115 120 115 130 0 10 4 20 9 23 19 12 -20 63 -128 171 l-110 110 77 78 c42
42 79 77 81 77 3 0 20 -14 38 -32z m2274 -103 l133 -135 138 137 138 138 80
-80 80 -80 -137 -137 -138 -138 135 -135 135 -135 -78 -77 -77 -78 -135 135
-135 135 -133 -133 c-73 -72 -137 -132 -142 -132 -6 0 -44 34 -85 75 l-75 75
138 138 137 137 -138 138 -137 138 75 74 c41 40 78 74 81 74 4 1 67 -60 140
-134z m2194 5 c71 -71 134 -130 140 -130 5 0 69 60 142 132 l133 133 79 -79
80 -80 -132 -133 c-73 -74 -134 -136 -137 -139 -2 -2 56 -65 130 -139 l135
-135 -78 -77 -77 -78 -135 135 -135 134 -51 -49 c-28 -28 -87 -87 -132 -132
-45 -46 -86 -83 -92 -83 -6 0 -44 34 -85 75 l-75 75 138 138 137 137 -135 136
-136 135 73 77 c40 42 75 76 78 77 3 0 64 -58 135 -130z m-9542 -1133 l137
138 80 -80 80 -80 -137 -137 -138 -138 133 -133 c72 -73 132 -137 132 -142 0
-13 -132 -145 -145 -145 -5 0 -69 60 -142 132 l-133 133 -133 -133 c-73 -72
-137 -132 -142 -132 -6 0 -44 33 -84 74 l-74 74 138 137 138 136 -136 137
-137 137 77 78 78 77 135 -135 136 -136 137 138z m2199 0 l138 138 80 -80 80
-80 -137 -137 -138 -138 136 -137 136 -138 -40 -40 c-22 -22 -58 -55 -80 -74
l-39 -34 -134 134 -134 134 -133 -133 c-73 -72 -137 -132 -142 -132 -6 0 -44
33 -84 74 l-74 74 139 136 139 136 -138 138 -137 137 77 78 78 77 135 -135
135 -135 137 137z m2200 0 l138 138 80 -80 80 -80 -137 -137 -138 -138 133
-133 c72 -73 132 -135 132 -139 0 -6 -57 -65 -124 -128 l-27 -24 -134 134
-135 135 -133 -133 c-73 -72 -137 -132 -142 -132 -6 0 -44 33 -84 74 l-74 75
137 137 136 138 -135 136 -136 136 78 77 78 77 135 -135 135 -135 137 137z
m1830 3 c72 -71 135 -130 138 -130 4 0 66 59 139 131 l133 132 79 -79 79 -79
-137 -137 -138 -138 138 -137 138 -136 -78 -79 -78 -78 -137 137 -138 138
-138 -138 -137 -137 -78 78 -77 78 137 137 138 137 -138 138 -137 137 77 78
c43 42 79 77 80 77 2 0 62 -58 135 -130z m2471 -3 l137 138 80 -80 80 -80
-137 -137 -138 -138 138 -138 137 -137 -74 -73 c-40 -39 -78 -72 -82 -72 -5 0
-68 60 -141 132 l-133 133 -133 -133 c-73 -72 -137 -132 -142 -132 -6 0 -43
33 -83 73 l-73 74 137 137 138 136 -137 138 -137 137 77 78 78 77 135 -135
136 -136 137 138z m2055 -131 c3 -4 67 54 143 130 l139 139 80 -80 80 -80
-137 -137 -138 -138 137 -137 136 -138 -72 -72 c-40 -40 -77 -73 -82 -73 -5 0
-68 60 -141 132 l-133 133 -133 -133 c-73 -72 -137 -132 -142 -132 -6 0 -43
33 -84 74 l-73 73 138 137 137 137 -136 137 -137 137 77 78 78 77 130 -128
c71 -70 131 -131 133 -136z m-9635 -959 l137 138 80 -80 80 -81 -135 -133
c-74 -74 -135 -137 -135 -140 0 -4 59 -65 130 -136 72 -71 130 -133 130 -137
0 -4 -33 -41 -74 -81 l-74 -74 -136 136 -136 136 -138 -138 -137 -137 -79 79
-78 79 136 138 137 138 -136 136 -135 135 77 78 78 77 135 -135 135 -135 138
137z m2199 0 l138 138 80 -80 80 -80 -137 -137 -138 -138 134 -134 134 -135
-29 -33 c-16 -18 -51 -53 -77 -77 l-48 -45 -134 134 -135 135 -138 -138 -137
-137 -80 80 -80 81 138 136 138 137 -136 136 -135 135 77 78 78 77 135 -135
135 -135 137 137z m1765 85 c13 -13 23 -28 23 -34 0 -6 40 -51 89 -100 l89
-89 136 138 135 138 81 -80 80 -80 -137 -137 -138 -138 138 -138 137 -137 -77
-77 -78 -77 -137 137 -138 137 -90 -90 c-49 -49 -90 -94 -90 -99 0 -14 -61
-76 -75 -76 -6 0 -43 33 -83 73 l-72 72 110 110 c129 129 145 152 125 193 -8
15 -64 76 -125 137 l-110 110 77 77 c83 83 77 82 130 30z m2537 -86 l138 137
79 -79 79 -79 -137 -137 -138 -138 133 -133 c72 -73 132 -137 132 -142 0 -10
-114 -125 -139 -139 -9 -6 -53 31 -147 125 l-134 134 -138 -138 -137 -137 -78
77 -77 78 137 137 138 138 -138 138 -137 137 77 78 78 77 136 -136 136 -135
137 137z m2199 1 l136 138 81 -80 80 -80 -137 -137 -138 -138 137 -137 137
-138 -78 -76 -79 -76 -136 136 -136 136 -138 -138 -137 -137 -79 79 -80 80
138 138 137 137 -136 136 -135 135 77 78 78 77 135 -135 136 -136 137 138z"/>
<path d="M1203 12923 l77 -78 77 78 78 77 -155 0 -155 0 78 -77z"/>
<path d="M3343 12893 l107 -108 107 108 108 107 -215 0 -215 0 108 -107z"/>
<path d="M5543 12923 l77 -78 77 78 78 77 -155 0 -155 0 78 -77z"/>
<path d="M7703 12923 l77 -78 77 78 78 77 -155 0 -155 0 78 -77z"/>
<path d="M9843 12893 l107 -108 107 108 108 107 -215 0 -215 0 108 -107z"/>
<path d="M12043 12923 l77 -78 77 78 78 77 -155 0 -155 0 78 -77z"/>
</g>
</svg>
